HIERARCHY
ROOT Hips
{
	OFFSET -0.001795 -0.223333 0.028219
	CHANNELS 6 Xposition Yposition Zposition Zrotation Yrotation Xrotation 
	JOINT LeftUpLeg
	{
		OFFSET 0.069520 -0.091406 -0.006815
		CHANNELS 3 Zrotation Yrotation Xrotation
		JOINT LeftLeg
		{
			OFFSET 0.034277 -0.375199 -0.004496
			CHANNELS 3 Zrotation Yrotation Xrotation
			JOINT LeftFoot
			{
				OFFSET -0.013596 -0.397961 -0.043693
				CHANNELS 3 Zrotation Yrotation Xrotation
				JOINT LeftToe
				{
					OFFSET 0.026358 -0.055791 0.119288
					CHANNELS 3 Zrotation Yrotation Xrotation
					End Site
					{
						OFFSET 0.000000 0.000000 0.000000
					}
				}
			}
		}
	}
	JOINT RightUpLeg
	{
		OFFSET -0.067670 -0.090522 -0.004320
		CHANNELS 3 Zrotation Yrotation Xrotation
		JOINT RightLeg
		{
			OFFSET -0.038290 -0.382569 -0.008850
			CHANNELS 3 Zrotation Yrotation Xrotation
			JOINT RightFoot
			{
				OFFSET 0.015774 -0.398415 -0.042312
				CHANNELS 3 Zrotation Yrotation Xrotation
				JOINT RightToe
				{
					OFFSET -0.025372 -0.048144 0.123348
					CHANNELS 3 Zrotation Yrotation Xrotation
					End Site
					{
						OFFSET 0.000000 0.000000 0.000000
					}
				}
			}
		}
	}
	JOINT Spine
	{
		OFFSET -0.002533 0.108963 -0.026696
		CHANNELS 3 Zrotation Yrotation Xrotation
		JOINT Spine1
		{
			OFFSET 0.005487 0.135180 0.001092
			CHANNELS 3 Zrotation Yrotation Xrotation
			JOINT Spine2
			{
				OFFSET 0.001457 0.052922 0.025425
				CHANNELS 3 Zrotation Yrotation Xrotation
				JOINT Neck
				{
					OFFSET -0.002778 0.213870 -0.042857
					CHANNELS 3 Zrotation Yrotation Xrotation
					JOINT Head
					{
						OFFSET 0.005152 0.064970 0.051349
						CHANNELS 3 Zrotation Yrotation Xrotation
						End Site
						{
							OFFSET 0.000000 0.000000 0.000000
						}
					}
				}
				JOINT LeftShoulder
				{
					OFFSET 0.078845 0.121749 -0.034090
					CHANNELS 3 Zrotation Yrotation Xrotation
					JOINT LeftArm
					{
						OFFSET 0.090977 0.030469 -0.008868
						CHANNELS 3 Zrotation Yrotation Xrotation
						JOINT LeftForeArm
						{
							OFFSET 0.259612 -0.012772 -0.027456
							CHANNELS 3 Zrotation Yrotation Xrotation
							JOINT LeftHand
							{
								OFFSET 0.249234 0.008986 -0.001171
								CHANNELS 3 Zrotation Yrotation Xrotation
								End Site
								{
									OFFSET 0.000000 0.000000 0.000000
								}
							}
						}
					}
				}
				JOINT RightShoulder
				{
					OFFSET -0.081759 0.118833 -0.038615
					CHANNELS 3 Zrotation Yrotation Xrotation
					JOINT RightArm
					{
						OFFSET -0.096012 0.032551 -0.009143
						CHANNELS 3 Zrotation Yrotation Xrotation
						JOINT RightForeArm
						{
							OFFSET -0.253742 -0.013329 -0.021401
							CHANNELS 3 Zrotation Yrotation Xrotation
							JOINT RightHand
							{
								OFFSET -0.255298 0.007772 -0.005559
								CHANNELS 3 Zrotation Yrotation Xrotation
								End Site
								{
									OFFSET 0.000000 0.000000 0.000000
								}
							}
						}
					}
				}
			}
		}
	}
}
MOTION
Frames: 11
Frame Time: 0.050000
-0.229367 0.938396 0.130302 -5.580155 62.165612 6.807541 13.054719 -4.007782 -23.444150 -7.115585 -0.667855 3.075670 3.151455 17.431798 20.740745 0.000000 0.000000 0.000000 -7.234193 -3.862373 -21.000833 3.144464 -1.596966 6.465969 -2.946147 -1.802972 21.727524 0.000000 0.000000 0.000000 -2.242230 -5.962487 30.316368 -2.379125 2.100556 -23.072222 -3.588028 14.716277 24.528647 23.965356 -1.546345 -40.859855 0.000000 0.000000 0.000000 -3.134364 -39.762446 7.353018 -17.056575 -51.481304 -3.195974 17.656562 -27.609984 -6.496614 0.000000 0.000000 0.000000 15.147311 13.528894 17.106507 57.589357 62.537497 32.113441 -34.556802 21.198513 -3.936439 0.000000 0.000000 0.000000 
-0.230049 0.938511 0.129966 -5.121170 62.185548 7.488931 12.714309 -4.068090 -23.809395 -6.839626 -0.643248 3.107143 3.053122 17.451819 20.867893 0.000000 0.000000 0.000000 -7.476711 -4.076931 -21.440048 3.243772 -1.645923 6.637503 -2.859924 -1.705147 21.775578 0.000000 0.000000 0.000000 -1.988387 -6.256118 30.844867 -2.456768 2.093754 -23.235773 -3.616001 14.441006 24.327370 23.138486 -1.127192 -41.030274 0.000000 0.000000 0.000000 -3.791281 -40.262670 7.475141 -17.708359 -51.414899 -2.690013 17.846035 -26.663109 -6.225212 0.000000 0.000000 0.000000 15.526970 13.352552 17.127188 57.190470 61.575136 30.895087 -34.748558 22.669241 -4.234167 0.000000 0.000000 0.000000 
-0.230878 0.938608 0.129895 -4.715015 62.122355 8.106346 12.368918 -4.059320 -23.851347 -6.486829 -0.616169 2.655703 2.952101 17.428523 21.010929 0.000000 0.000000 0.000000 -7.588155 -4.227630 -21.880038 3.198706 -1.643435 6.801875 -2.768952 -1.602715 21.789017 0.000000 0.000000 0.000000 -1.741440 -6.466236 31.199475 -2.509127 2.114160 -23.076934 -3.741217 13.978002 24.008286 22.523994 -0.936252 -40.767590 0.000000 0.000000 0.000000 -4.971927 -40.608353 7.504193 -18.265888 -50.527145 -1.870827 18.196067 -26.112451 -6.106661 0.000000 0.000000 0.000000 16.300474 13.263158 17.382487 56.027031 60.555763 28.908213 -35.082328 24.616371 -4.647956 0.000000 0.000000 0.000000 
-0.231936 0.938509 0.130188 -4.386187 62.404226 8.639639 12.024192 -4.095405 -24.019512 -6.073876 -0.593229 2.317499 2.686383 17.234077 21.057376 0.000000 0.000000 0.000000 -7.837614 -4.470998 -22.277957 3.466615 -1.770996 7.072563 -2.794622 -1.649856 21.763266 0.000000 0.000000 0.000000 -1.438345 -6.872157 31.859619 -2.761800 2.145412 -23.121608 -3.687735 13.511664 23.863929 21.923434 -0.687217 -40.886545 0.000000 0.000000 0.000000 -5.424622 -40.822954 7.651644 -18.621071 -50.291354 -1.515255 18.637601 -25.933615 -6.128229 0.000000 0.000000 0.000000 16.613468 13.143202 17.352513 55.147067 60.111830 27.823399 -35.360907 26.121802 -4.980036 0.000000 0.000000 0.000000 
-0.233236 0.938241 0.130889 -4.302736 62.309942 8.901050 11.929606 -4.085105 -24.012987 -5.760556 -0.568392 1.922340 2.665157 17.243121 21.135656 0.000000 0.000000 0.000000 -7.866314 -4.559406 -22.616314 3.640843 -1.834174 7.186229 -2.709554 -1.570716 21.669945 0.000000 0.000000 0.000000 -1.390116 -7.043157 32.245501 -2.633525 2.126367 -23.125150 -3.737039 13.282477 23.630224 21.678356 -0.620558 -40.908515 0.000000 0.000000 0.000000 -6.026716 -40.696625 7.595205 -19.429086 -49.482308 -0.867887 19.249037 -26.715543 -6.517306 0.000000 0.000000 0.000000 16.850655 13.087642 17.343069 53.995093 59.703121 26.639015 -35.664914 28.117358 -5.466990 0.000000 0.000000 0.000000 
-0.234603 0.938053 0.131860 -4.066857 62.284471 9.462755 11.816444 -4.164377 -24.397282 -5.447898 -0.541816 1.865709 2.631078 17.312987 21.282320 0.000000 0.000000 0.000000 -7.940815 -4.731474 -23.152177 3.825261 -1.908861 7.365421 -2.627453 -1.497065 21.592174 0.000000 0.000000 0.000000 -1.336056 -7.239375 32.654463 -2.837048 2.136872 -23.233057 -3.728092 13.161092 23.563044 21.230481 -0.459819 -40.813461 0.000000 0.000000 0.000000 -5.979813 -40.392445 7.598250 -20.201534 -49.140663 -0.525493 19.731518 -27.478424 -6.883683 0.000000 0.000000 0.000000 16.873350 12.988554 17.230199 52.664430 59.735038 25.787056 -35.859530 29.238693 -5.761719 0.000000 0.000000 0.000000 
-0.235844 0.938044 0.132911 -3.722190 62.015592 10.059599 11.907656 -4.199237 -24.587319 -5.567698 -0.544610 1.656781 2.772147 17.564755 21.588283 0.000000 0.000000 0.000000 -8.055922 -4.897515 -23.678646 4.012559 -1.980847 7.571731 -2.416777 -1.274665 21.524981 0.000000 0.000000 0.000000 -1.245228 -7.380021 32.976012 -3.024733 2.150530 -23.343094 -3.722218 13.116531 23.648131 20.975714 -0.377519 -40.817080 0.000000 0.000000 0.000000 -6.175197 -40.132252 7.575522 -20.833027 -48.532562 -0.161937 20.489186 -28.606578 -7.450279 0.000000 0.000000 0.000000 17.000534 12.874908 17.157159 51.314559 59.994734 25.032888 -35.720988 30.090168 -5.950198 0.000000 0.000000 0.000000 
-0.236900 0.937774 0.133823 -3.381004 61.939709 10.595698 11.910739 -4.238629 -24.767216 -5.616765 -0.549162 1.479955 2.820422 17.680604 21.752484 0.000000 0.000000 0.000000 -8.091946 -5.029166 -24.109175 3.998706 -1.999255 7.793397 -2.336878 -1.201529 21.362393 0.000000 0.000000 0.000000 -0.878748 -7.571093 33.123641 -3.399148 2.207680 -23.160686 -3.795475 13.060662 23.625388 20.442246 -0.158007 -40.690736 0.000000 0.000000 0.000000 -6.278503 -40.070577 7.625663 -21.557046 -48.134064 0.155519 21.156912 -29.429813 -7.919613 0.000000 0.000000 0.000000 16.761293 12.644393 16.827458 50.443066 59.973494 24.596506 -35.823790 30.990732 -6.176531 0.000000 0.000000 0.000000 
-0.237896 0.937793 0.134720 -3.070892 61.627864 10.976605 12.036271 -4.267531 -24.944720 -5.851136 -0.555580 1.624063 3.011786 17.951472 21.993081 0.000000 0.000000 0.000000 -8.265512 -5.171203 -24.450252 4.252628 -2.104470 8.036383 -2.097949 -0.949114 21.292864 0.000000 0.000000 0.000000 -0.793222 -7.738131 33.504884 -3.548539 2.211736 -23.338516 -3.820341 13.089365 23.784322 20.587213 -0.263827 -40.770275 0.000000 0.000000 0.000000 -6.125947 -39.748510 7.642924 -21.993206 -48.128735 0.263790 21.500102 -29.883031 -8.155039 0.000000 0.000000 0.000000 16.531824 12.588240 16.572844 49.493484 60.237138 24.266627 -35.495239 31.130392 -6.187603 0.000000 0.000000 0.000000 
-0.238974 0.937853 0.135729 -2.831202 61.366906 11.410359 12.241257 -4.341539 -25.297394 -6.091381 -0.562498 1.827206 3.203885 18.250622 22.281861 0.000000 0.000000 0.000000 -8.429872 -5.351624 -24.908297 4.586524 -2.238516 8.285407 -1.864179 -0.702785 21.281306 0.000000 0.000000 0.000000 -0.596815 -7.803005 33.564109 -3.818465 2.253736 -23.270989 -3.831295 12.949052 23.876100 20.676899 -0.358272 -40.770870 0.000000 0.000000 0.000000 -6.040166 -39.548105 7.708000 -22.311667 -48.073776 0.356529 21.919917 -30.297541 -8.394977 0.000000 0.000000 0.000000 16.612619 12.387528 16.410284 48.207130 60.450648 23.554184 -35.036517 31.164270 -6.120569 0.000000 0.000000 0.000000 
-0.240230 0.937953 0.136984 -2.714456 61.035065 11.789270 12.356510 -4.376581 -25.501981 -6.025917 -0.545942 1.735408 3.357833 18.499664 22.569029 0.000000 0.000000 0.000000 -8.390188 -5.388726 -25.244798 4.708515 -2.237758 8.161352 -1.697948 -0.518558 21.287503 0.000000 0.000000 0.000000 -0.409158 -7.808599 33.502673 -3.825083 2.247905 -23.267380 -3.915745 12.812481 24.036494 20.641510 -0.398367 -40.684131 0.000000 0.000000 0.000000 -5.995961 -39.194925 7.681768 -22.450595 -48.027519 0.391794 22.362021 -30.438779 -8.572300 0.000000 0.000000 0.000000 16.454755 12.199808 16.126561 47.519721 60.472483 23.198903 -34.835037 31.459426 -6.152731 0.000000 0.000000 0.000000 
